<svg xmlns="http://www.w3.org/2000/svg" version="1.1" viewBox="1 41.15 44.42 41.16">
<path d="M0 0 C3.83665053 3.37625247 5.37305501 6.31665014 6.03515625 11.26171875 C6.311618 18.06094999 5.42174632 23.70863581 1.66015625 29.4609375 C-2.79657332 33.91766707 -6.99339961 35.5569576 -13.21484375 35.7734375 C-19.36383614 35.61811377 -23.42674252 33.96699592 -28.27734375 30.1484375 C-31.45427349 25.94771313 -31.01569868 20.86261729 -30.82421875 15.8203125 C-30.16257591 11.23149923 -28.86277928 8.46470358 -25.33984375 5.4609375 C-20.95933654 2.50885656 -17.57414607 1.82921136 -12.33984375 2.4609375 C-7.93235674 3.90028289 -5.05186348 5.45965975 -2.33984375 9.2734375 C-0.79590169 14.19475283 -0.79891266 17.80632475 -2.40234375 22.7109375 C-4.95563762 26.33496751 -7.13496726 27.17809383 -11.33984375 28.4609375 C-15.34802376 29.0220827 -16.75872388 28.84835075 -20.15234375 26.5859375 C-22.96166962 23.85687808 -23.29235643 23.09014449 -23.58984375 19.1484375 C-23.32651827 15.26438673 -22.67578007 13.51562346 -20.33984375 10.4609375 C-17.46513882 9.02358504 -15.52089787 9.07921101 -12.33984375 9.4609375 C-9.90234375 11.7109375 -9.90234375 11.7109375 -8.33984375 14.4609375 C-8.58984375 16.7734375 -8.58984375 16.7734375 -9.33984375 18.4609375 C-12.33984375 17.4609375 -12.33984375 17.4609375 -14.33984375 14.4609375 C-15.32984375 14.4609375 -16.31984375 14.4609375 -17.33984375 14.4609375 C-17.50665484 17.37745924 -17.50665484 17.37745924 -17.33984375 20.4609375 C-16.67984375 21.1209375 -16.01984375 21.7809375 -15.33984375 22.4609375 C-13.34668705 22.48469676 -13.34668705 22.48469676 -11.21484375 22.0859375 C-9.93609375 21.8796875 -8.65734375 21.6734375 -7.33984375 21.4609375 C-6.43222606 16.83208729 -5.84999489 13.61068559 -8.33984375 9.4609375 C-11.69914776 6.84814549 -15.23217645 6.95648713 -19.33984375 7.4609375 C-22.81913461 9.95695051 -24.09495772 11.69746928 -25.40234375 15.7734375 C-25.32200015 20.51370975 -24.4665465 23.82940254 -21.33984375 27.4609375 C-17.28636308 29.90223836 -13.7561165 30.67882561 -9.08984375 29.9609375 C-4.73556341 27.5858755 -0.86073995 24.30015267 0.66015625 19.4609375 C1.11350441 13.83942033 0.84949187 10.29992948 -2.33984375 5.4609375 C-6.3391283 1.46165295 -10.63727428 -0.4744828 -16.35546875 -0.57421875 C-21.26087447 -0.19039884 -24.58948604 1.13675681 -28.33984375 4.4609375 C-30.54268368 7.95169982 -32.03766782 11.5544097 -33.33984375 15.4609375 C-34.98984375 15.4609375 -36.63984375 15.4609375 -38.33984375 15.4609375 C-38.1708699 7.35019268 -33.45286018 3.49413299 -27.90234375 -1.9140625 C-19.05272201 -7.52601775 -8.3479897 -5.93101527 0 0 Z " fill="#070707" transform="translate(39.33984375,46.5390625)"/>
</svg>